<?xml version="1.0" encoding="UTF-8" standalone="no"?>
<svg
   xmlns:dc="http://purl.org/dc/elements/1.1/"
   xmlns:cc="http://creativecommons.org/ns#"
   xmlns:rdf="http://www.w3.org/1999/02/22-rdf-syntax-ns#"
   xmlns:svg="http://www.w3.org/2000/svg"
   xmlns="http://www.w3.org/2000/svg"
   viewBox="0 0 789.33331 1120"
   height="1120"
   width="789.33331"
   xml:space="preserve"
   id="svg2"
   version="1.1"><metadata
     id="metadata8"><rdf:RDF><cc:Work
         rdf:about=""><dc:format>image/svg+xml</dc:format><dc:type
           rdf:resource="http://purl.org/dc/dcmitype/StillImage" /></cc:Work></rdf:RDF></metadata><defs
     id="defs6" /><g
     transform="matrix(1.3333333,0,0,-1.3333333,-0.66666667,1119.3333)"
     id="g10"><path
       id="path12"
       style="fill:#f2e839;fill-opacity:1;fill-rule:evenodd;stroke:none"
       d="m 295.6123,122.05176 c 147.19336,0 267.3584,120.16699 267.3584,267.36035 0,147.19287 -120.16504,267.35889 -267.3584,267.35889 -147.19384,0 -267.35937,-120.16602 -267.35937,-267.35889 0,-147.19336 120.16553,-267.36035 267.35937,-267.36035 z" /><path
       id="path14"
       style="fill:#231f20;fill-opacity:1;fill-rule:evenodd;stroke:none"
       d="m 27.29053,389.41211 c 0,-147.95313 120.36865,-268.32227 268.32177,-268.32227 147.95215,0 268.32129,120.36914 268.32129,268.32227 0,147.95215 -120.36914,268.32178 -268.32129,268.32178 -147.95312,0 -268.32177,-120.36963 -268.32177,-268.32178 m 1.9248,0 c 0,146.8916 119.50488,266.39648 266.39697,266.39648 146.89161,0 266.39649,-119.50488 266.39649,-266.39648 0,-146.89258 -119.50488,-266.39746 -266.39649,-266.39746 -146.89209,0 -266.39697,119.50488 -266.39697,266.39746 z" /><path
       id="path16"
       style="fill:#231f20;fill-opacity:1;fill-rule:evenodd;stroke:none"
       d="m 295.6123,138.40723 c 138.1836,0 251.00391,112.82031 251.00391,251.00488 0,138.18359 -112.82031,251.00488 -251.00391,251.00488 -138.18408,0 -251.00439,-112.82129 -251.00439,-251.00488 0,-138.18457 112.82031,-251.00488 251.00439,-251.00488 z" /><path
       id="path18"
       style="fill:#ffffff;fill-opacity:1;fill-rule:evenodd;stroke:none"
       d="m 295.6123,146.72266 c 133.61036,0 242.68848,109.0791 242.68848,242.68945 0,133.60986 -109.07812,242.68799 -242.68848,242.68799 -133.61084,0 -242.68896,-109.07813 -242.68896,-242.68799 0,-133.61035 109.07812,-242.68945 242.68896,-242.68945 z" /><path
       id="path20"
       style="fill:#0071bc;fill-opacity:1;fill-rule:evenodd;stroke:none"
       d="m 295.6123,165.71094 c 123.21485,0 223.7002,100.48437 223.7002,223.70117 0,123.21484 -100.48535,223.70068 -223.7002,223.70068 -123.2163,0 -223.70068,-100.48584 -223.70068,-223.70068 0,-123.2168 100.48438,-223.70117 223.70068,-223.70117 z" /><path
       id="path22"
       style="fill:#ffffff;fill-opacity:1;fill-rule:evenodd;stroke:none"
       d="m 449.61133,561.54834 c 0,0 -27.80078,-28.875 -58.30957,-28.875 -46.38379,0 -81.50293,12.19238 -100.71729,14.75781 C 271.36914,549.99707 230,552 206,532 c -16.98437,-14.15381 -21.43359,-28.20312 -21.43359,-37.18555 0,-7.05908 -2.49366,-15.65869 -8.61475,-23.74121 -7.2876,-9.625 -13.25098,-24.38281 -15.23877,-39.1416 -1.98828,-14.75976 -2.93555,-26.0791 -19.87891,-50.69141 -10.60107,-15.40039 -15.90283,-23.0996 -10.60107,-28.875 5.92236,-6.45117 13.25049,-8.98437 13.25049,-13.47558 0,-4.49219 -3.97461,-13.47461 -3.97461,-17.3252 0,-3.84961 7.95117,-12.1914 7.95117,-12.1914 0,0 -4.3042,-2.58789 -3.97656,-5.13379 0.66504,-5.13184 3.97656,-4.49121 7.95215,-14.11621 2.56982,-6.22071 -2.64942,-21.17481 1.32568,-26.9502 4.42627,-6.42871 16.62061,-10.66406 39.75635,-8.9834 26.50586,1.92481 51.45166,1.45313 83.48926,-21.8164 39.75683,-28.875 58.97168,-51.97559 58.97168,-51.97559 0,0 90.11621,3.20996 150.41406,90.47559 79.43359,114.958 21.20508,252.81738 -35.78125,290.67529 z" /><path
       id="path24"
       style="fill:#231f20;fill-opacity:1;fill-rule:evenodd;stroke:none"
       d="m 203.95898,492.24805 c 0,0 37.8584,14.11767 71.8667,14.11767 34.0083,0 68.01612,-15.40039 102.66651,-15.40039 63.52734,0 82.77441,45.55762 82.77441,45.55762 0,0 -38.5,-26.30762 -75.07519,-26.30762 -25.66504,0 -80.20118,17.96729 -111.64991,17.96729 -59.03271,0 -70.58252,-35.93457 -70.58252,-35.93457 z" /><path
       id="path26"
       style="fill:#231f20;fill-opacity:1;fill-rule:evenodd;stroke:none"
       d="m 215.54932,180.55859 c 24.54638,-9.16894 50.91455,-14.59668 78.61914,-14.59668 92.68115,0 172.50342,56.11426 207.2749,136.15235 h -16.91602 l -0.22949,-0.50293 C 450.45703,230.57422 381.05957,192.26855 329.08398,186.97461 c 0,0 -45.71875,46.32031 -77.48144,59.55566 z" /><path
       id="path28"
       style="fill:#231f20;fill-opacity:1;fill-rule:evenodd;stroke:none"
       d="m 222.56641,453.10742 c 0,0 23.09472,10.26563 61.60009,10.26563 27.59229,0 80.20948,-10.26563 107.15967,-10.26563 26.30762,0 55.8252,12.19092 71.22461,26.9502 14.1084,13.52051 16.6836,28.875 16.6836,28.875 0,0 -37.8584,-37.85938 -82.13379,-37.85938 -32.72461,0 -80.84961,12.83399 -108.4419,12.83399 -51.33301,0 -66.09228,-30.79981 -66.09228,-30.79981 z" /><path
       id="path30"
       style="fill:#231f20;fill-opacity:1;fill-rule:evenodd;stroke:none"
       d="m 246.95068,421.02246 c 0,0 28.2334,2.56738 45.55811,2.56738 17.32519,0 42.99219,-10.2666 91.11719,-10.2666 45.55859,0 69.03515,8.90039 83.09472,18.6084 26.95118,18.6084 28.55567,40.42578 28.55567,40.42578 0,0 -36.17774,-36.54297 -78.28418,-41.06738 -38.82031,-4.1709 -81.49219,7.70019 -109.72559,7.70019 -52.61572,0 -60.31592,-17.96777 -60.31592,-17.96777 z" /><path
       id="path32"
       style="fill:#231f20;fill-opacity:1;fill-rule:evenodd;stroke:none"
       d="m 267.48389,385.73242 c 0,0 21.1748,2.56543 65.45068,-5.77539 37.96387,-7.15137 61.59863,-14.43848 100.09863,-7.05957 65.89453,12.63086 78.28321,63.52539 78.28321,63.52539 0,0 -34.00684,-33.36523 -73.79004,-42.99023 -41.60645,-10.06641 -85.91602,0.28418 -105.875,1.28222 -64.16748,3.20801 -64.16748,-8.98242 -64.16748,-8.98242 z" /><path
       id="path34"
       style="fill:#231f20;fill-opacity:1;fill-rule:evenodd;stroke:none"
       d="m 300.20898,355.57324 c 0,0 59.74512,-34.05176 136.67481,-17.96679 70.58301,14.75781 78.92578,62.88378 78.92578,62.88378 0,0 -25.91309,-34.06543 -79.88769,-44.59668 -52.61622,-10.26562 -135.7129,-0.32031 -135.7129,-0.32031 z" /><path
       id="path36"
       style="fill:#231f20;fill-opacity:1;fill-rule:evenodd;stroke:none"
       d="m 346.4082,321.56543 c 0,0 39.1416,-34.65039 102.02637,-18.60938 57.00098,14.542 63.04297,55.8252 63.04297,55.8252 0,0 -26.9502,-35.6123 -72.66797,-42.99121 -41.25,-6.6582 -78.92578,7.70019 -92.40137,5.77539 z" /></g></svg>